<?xml version="1.0" encoding="UTF-8"?>
<svg version="1.1" xmlns="http://www.w3.org/2000/svg" width="1127" height="332">
<path d="M0 0 C-0.1744313 0.54168823 -0.34886261 1.08337646 -0.52857971 1.64147949 C-9.957538 30.92553679 -19.3545981 60.21952143 -28.70829773 89.52769852 C-38.76578475 121.04071238 -48.87923923 152.53522217 -59.03723145 184.01599121 C-60.72391203 189.24369591 -62.4094505 194.47176886 -64.09512329 199.69979858 C-66.06225571 205.80024081 -68.03124304 211.9000809 -70 218 C-85.84 218 -101.68 218 -118 218 C-138.57086353 155.54294005 -138.57086353 155.54294005 -146.4105835 131.00915527 C-147.01039808 129.13262904 -147.61166896 127.25656766 -148.2144165 125.38098145 C-149.0394321 122.81140463 -149.85864152 120.24005922 -150.67578125 117.66796875 C-150.91536057 116.92413437 -151.15493988 116.18029999 -151.40177917 115.41392517 C-152.32349036 112.49054898 -153 110.08601833 -153 107 C-153.66 107 -154.32 107 -155 107 C-155.09624664 107.56616028 -155.19249329 108.13232056 -155.29165649 108.71563721 C-156.65759059 116.15415319 -158.82849186 123.23168866 -161.1484375 130.421875 C-161.56224174 131.7178376 -161.97554969 133.01395875 -162.38839722 134.31022644 C-163.48553252 137.75077101 -164.5890218 141.18924556 -165.69374084 144.6273613 C-166.83335195 148.17811379 -167.96682224 151.73082424 -169.10058594 155.28344727 C-170.45733942 159.53367333 -171.81453129 163.78375602 -173.17443848 168.03297424 C-176.89509233 179.65876851 -180.58135674 191.29519473 -184.25 202.9375 C-185.8175 207.908125 -187.385 212.87875 -189 218 C-204.84 218 -220.68 218 -237 218 C-243.98370556 197.24287514 -250.77997481 176.43769109 -257.42578125 155.5703125 C-261.17433028 143.80551354 -264.94973916 132.05008725 -268.76912117 120.30811882 C-269.46897381 118.15585588 -270.16804141 116.00333968 -270.86680603 113.85072327 C-271.09605176 113.14453197 -271.32529749 112.43834066 -271.56149006 111.71074963 C-272.02247209 110.29062447 -272.48342432 108.87048964 -272.94434643 107.45034504 C-274.30486521 103.26012799 -275.67052281 99.0716274 -277.0396719 94.88422298 C-277.68649329 92.90285865 -278.33064503 90.92065042 -278.97361755 88.93803406 C-279.76425916 86.50027628 -280.55925845 84.06392616 -281.35926819 81.62922668 C-281.70863937 80.54775864 -282.05801056 79.46629059 -282.41796875 78.35205078 C-282.72500732 77.41032013 -283.0320459 76.46858948 -283.34838867 75.49832153 C-284 73 -284 73 -284 69 C-277.97159829 67.40002459 -271.93895352 65.81689798 -265.90307617 64.24536133 C-263.85062964 63.70886196 -261.79918212 63.16852543 -259.7487793 62.62426758 C-256.79991356 61.8422361 -253.84772044 61.07411331 -250.89453125 60.30859375 C-249.97976517 60.06282089 -249.06499908 59.81704803 -248.12251282 59.56382751 C-247.26199814 59.34352371 -246.40148346 59.12321991 -245.51489258 58.89624023 C-244.38571159 58.59978859 -244.38571159 58.59978859 -243.23371887 58.29734802 C-240.60720159 57.94771149 -238.55558084 58.35930697 -236 59 C-235.72882355 59.97417374 -235.45764709 60.94834747 -235.17825317 61.95204163 C-232.6185142 71.14752262 -230.05852501 80.34293392 -227.49829292 89.53827763 C-226.18216773 94.26531105 -224.86612968 98.99236869 -223.55029297 103.71948242 C-222.27965552 108.28420628 -221.00878631 112.84886555 -219.73775864 117.41348076 C-219.25367917 119.15210119 -218.76968221 120.89074459 -218.28577042 122.6294117 C-217.60626156 125.07079233 -216.92645532 127.51208997 -216.24658203 129.95336914 C-215.94879349 131.02368126 -215.94879349 131.02368126 -215.64498901 132.11561584 C-214.44712125 136.41545639 -213.23056808 140.70943852 -212 145 C-207.71578165 132.19264634 -203.91544474 119.28552734 -200.32041168 106.27142715 C-198.85879968 100.99378715 -197.37600705 95.72203811 -195.89558792 90.4496479 C-194.61887221 85.89471424 -193.35662947 81.336553 -192.12109375 76.77026367 C-190.90720336 72.28738133 -189.65705278 67.81607709 -188.38151169 63.35036278 C-187.90652116 61.66240063 -187.44483816 59.97063214 -186.9971199 58.27523232 C-183.54250511 45.23402044 -183.54250511 45.23402044 -179.98451233 42.3875885 C-177.6122742 41.5557441 -175.49847115 41.24035584 -173 41 C-171.42036526 40.60232806 -169.8462073 40.18231065 -168.27807617 39.74145508 C-166.61738214 39.33005477 -164.95563448 38.9228891 -163.29296875 38.51953125 C-161.96124382 38.19295784 -161.96124382 38.19295784 -160.60261536 37.85978699 C-158.74343203 37.40504164 -156.88378023 36.95220763 -155.02368164 36.5012207 C-152.17633258 35.80978817 -149.33129854 35.10935067 -146.48632812 34.40820312 C-144.67200708 33.96560406 -142.85755833 33.52352809 -141.04296875 33.08203125 C-140.19502243 32.87270462 -139.34707611 32.66337799 -138.47343445 32.44770813 C-137.68193497 32.25718369 -136.89043549 32.06665924 -136.07495117 31.87036133 C-135.38261887 31.70176102 -134.69028656 31.53316071 -133.97697449 31.35945129 C-132 31 -132 31 -128 31 C-124.09715721 43.17092798 -120.37152752 55.38055141 -116.82741737 67.66063309 C-116.02593304 70.43765788 -115.22155505 73.21383162 -114.41654968 75.98983765 C-112.71267224 81.86749481 -111.012461 87.74620914 -109.3125 93.625 C-107.32880369 100.48332843 -105.34355462 107.34120303 -103.35555077 114.19828415 C-102.5680471 116.9169562 -101.7827684 119.63626402 -100.99763489 122.35562134 C-100.51195099 124.0321945 -100.0261721 125.70874014 -99.5402832 127.38525391 C-99.32672684 128.12721008 -99.11317047 128.86916626 -98.8931427 129.63360596 C-97.39208009 134.80131296 -95.73368027 139.90580885 -94 145 C-90.81648624 133.99105395 -87.63372401 122.98189091 -84.45180893 111.97248268 C-82.6864382 105.86440489 -80.92062349 99.75645583 -79.15413666 93.64870071 C-78.58174782 91.66891531 -78.00969174 89.68903367 -77.43796539 87.70905685 C-76.00623638 82.75104312 -74.57029676 77.79433268 -73.12536621 72.84014893 C-70.50843303 63.84625843 -67.93398825 54.84842576 -65.54514694 45.79086494 C-64.50745751 41.86033436 -63.44724516 37.93602076 -62.3862381 34.01173019 C-61.89353696 32.16096636 -61.41284304 30.3069596 -60.94487762 28.44978714 C-60.30026093 25.89306184 -59.61617793 23.35002564 -58.92285156 20.80615234 C-58.74534615 20.05426006 -58.56784073 19.30236778 -58.38495636 18.52769089 C-57.57156225 15.66635852 -56.81147904 13.49677676 -54.2069664 11.90232849 C-52.1528236 11.10918949 -50.13906115 10.51692135 -48 10 C-46.71026276 9.61137787 -46.71026276 9.61137787 -45.39447021 9.21490479 C-44.64264465 9.0231366 -43.89081909 8.83136841 -43.11621094 8.63378906 C-42.24881287 8.41055969 -41.38141479 8.18733032 -40.48773193 7.95733643 C-39.57912415 7.72907166 -38.67051636 7.50080688 -37.734375 7.265625 C-36.7785553 7.02334167 -35.8227356 6.78105835 -34.83795166 6.53143311 C-32.83171548 6.02484094 -30.82484685 5.52074745 -28.81738281 5.01904297 C-25.74275622 4.24818387 -22.67221264 3.46231069 -19.6015625 2.67578125 C-17.64606461 2.18397531 -15.69034287 1.69305843 -13.734375 1.203125 C-12.35931793 0.84858246 -12.35931793 0.84858246 -10.95648193 0.48687744 C-9.67429779 0.17094635 -9.67429779 0.17094635 -8.36621094 -0.15136719 C-7.61756775 -0.339953 -6.86892456 -0.52853882 -6.09759521 -0.72283936 C-3.7844984 -1.02847478 -2.20663309 -0.70658736 0 0 Z " fill="#231F20" transform="translate(289,108)"/>
<path d="M0 0 C3.50431117 2.84161995 6.77925916 5.84210289 10 9 C11.14275391 10.08861328 11.14275391 10.08861328 12.30859375 11.19921875 C33.91145089 33.25135542 35 63.81187063 35 93 C-8.56 93 -52.12 93 -97 93 C-91.34790005 108.07226653 -86.92095116 118.90622305 -72.5546875 126.25 C-59.42159721 131.84906044 -46.57755769 132.52025126 -33 128 C-29.73646982 126.28664665 -26.87533329 124.2968971 -24 122 C-23.18789062 121.4121875 -22.37578125 120.824375 -21.5390625 120.21875 C-18.57202679 117.62601726 -16.50947647 114.70913721 -14.375 111.4375 C-12.12502302 108.03593007 -9.95677902 104.83397519 -7 102 C-6.3922876 102.29132813 -5.7845752 102.58265625 -5.15844727 102.8828125 C-3.33318665 103.75753474 -1.50772904 104.63184597 0.31787109 105.50585938 C2.40600788 106.50596871 4.49356908 107.50728066 6.58056641 108.50976562 C11.46150586 110.84997294 16.34643715 113.17295666 21.27734375 115.40625 C22.05988525 115.76332031 22.84242676 116.12039063 23.64868164 116.48828125 C25.1061866 117.15062367 26.56752099 117.80461835 28.03295898 118.44921875 C29.72607518 119.22225025 31.36959779 120.10222008 33 121 C33.33 121.99 33.66 122.98 34 124 C32.81839066 126.28120466 31.61035158 128.31356228 30.1875 130.4375 C29.77806152 131.05713623 29.36862305 131.67677246 28.94677734 132.31518555 C13.59132775 155.12691513 -7.15873577 169.44854928 -34 175 C-58.77786098 179.32801065 -85.20304949 174.10565834 -105.98046875 159.97265625 C-127.33484328 144.57260669 -139.97765511 124.10354597 -144.64794922 98.29492188 C-148.84720354 70.92114194 -143.6366247 44.0633904 -128.02734375 21.09765625 C-126.11793785 18.61582066 -124.12113012 16.30305187 -122 14 C-121.19046875 13.09894531 -120.3809375 12.19789063 -119.546875 11.26953125 C-89.51470098 -20.56281694 -35.44626096 -26.48970191 0 0 Z M-86.5 40.5625 C-89.92787439 44.68578334 -93 48.45753791 -93 54 C-66.93 54 -40.86 54 -14 54 C-17.41342062 43.75973815 -23.16927139 35.42868822 -33.00390625 30.4921875 C-52.02312547 22.32442464 -72.08836045 24.9674229 -86.5 40.5625 Z " fill="#231F20" transform="translate(1092,156)"/>
<path d="M0 0 C0 22.77 0 45.54 0 69 C2.97 66.36 5.94 63.72 9 61 C26.37596528 49.02467258 47.4852101 46.43246607 68 50.1875 C84.6721165 54.09868841 98.83216338 62.6021877 108.05859375 77.2734375 C116.59573745 91.86333991 119.16702986 107.34396522 119.11352539 124.08569336 C119.11367142 125.28640472 119.11381744 126.48711609 119.1139679 127.72421265 C119.11339275 130.99850439 119.10839536 134.27275278 119.10139394 137.54703593 C119.09512066 140.97565569 119.09455346 144.40427639 119.09336853 147.832901 C119.0902669 154.31733963 119.08206932 160.8017613 119.07201904 167.28619248 C119.06082155 174.67194348 119.0553383 182.05769533 119.05032361 189.44345272 C119.03988568 204.62897947 119.02155479 219.8144842 119 235 C103.16 235 87.32 235 71 235 C70.9906543 231.61468018 70.98130859 228.22936035 70.97167969 224.74145508 C70.93782217 213.52162793 70.88242281 202.30197493 70.81609726 191.08229542 C70.77642791 184.28378255 70.74397444 177.48538341 70.72900391 170.68676758 C70.71451953 164.11841208 70.67927042 157.55035307 70.63169098 150.98215294 C70.61692205 148.4837419 70.60896158 145.98528049 70.60811615 143.48682594 C71.4008591 121.3840139 71.4008591 121.3840139 61.69921875 102.359375 C53.71259144 95.97007315 44.00524024 94.13177667 34 95 C23.19894464 96.89576045 15.2868179 103.17693527 9 112 C0.15959647 126.90171001 0.53813894 143.94281076 0.48828125 160.68359375 C0.47140083 162.83692933 0.45324618 164.99025526 0.43388367 167.14356995 C0.38674248 172.76084373 0.35670232 178.37807837 0.33044434 183.9954834 C0.29516659 190.76233076 0.23825775 197.5290279 0.18505096 204.29575348 C0.10695878 214.53048215 0.05603444 224.76501991 0 235 C-15.84 235 -31.68 235 -48 235 C-48 161.41 -48 87.82 -48 12 C-1 0 -1 0 0 0 Z " fill="#231F20" transform="translate(350,91)"/>
<path d="M0 0 C0.93328125 0.41894531 1.8665625 0.83789062 2.828125 1.26953125 C16.98820044 8.28888293 29.08362544 21.33768043 35 36 C34.82444763 38.09674072 34.82444763 38.09674072 34 40 C32.37464905 41.12640381 32.37464905 41.12640381 30.24633789 42.01464844 C29.45203873 42.3546991 28.65773956 42.69474976 27.83937073 43.04510498 C26.97585495 43.39631409 26.11233917 43.74752319 25.22265625 44.109375 C24.34097275 44.48104797 23.45928925 44.85272095 22.55088806 45.23565674 C19.72714446 46.42135085 16.89497376 47.58533862 14.0625 48.75 C12.15635163 49.54947257 10.25074499 50.3502381 8.34570312 51.15234375 C6.53434027 51.91001734 4.72250647 52.66656623 2.91015625 53.421875 C2.0486647 53.78118103 1.18717316 54.14048706 0.29957581 54.51068115 C-0.49787552 54.83812317 -1.29532684 55.16556519 -2.11694336 55.50292969 C-3.17165077 55.93783722 -3.17165077 55.93783722 -4.24766541 56.38153076 C-6 57 -6 57 -8 57 C-8.35191406 56.27554688 -8.70382812 55.55109375 -9.06640625 54.8046875 C-14.42545859 44.31045967 -19.8101051 39.6549908 -31 36 C-39.67213362 33.33300982 -49.77075219 34.39202755 -58 38 C-61.36304362 40.17196567 -63.84920997 42.08731389 -65 46 C-65.31708771 49.02080135 -65.31708771 49.02080135 -64 52 C-54.68786751 61.25735524 -35.78119319 63.47182541 -23.40136719 66.47949219 C-1.68758011 71.78157095 18.72051326 79.31383872 31 99 C38.07069988 111.65172708 38.61757364 125.99478507 35.0234375 139.84375 C29.81776863 155.89787386 17.59083576 167.3119773 3 175 C-19.47651902 186.25059569 -46.99689692 187.08027215 -70.70703125 179.25390625 C-80.95843507 175.35034679 -89.88369736 170.38674735 -98 163 C-98.91652344 162.17628906 -99.83304688 161.35257813 -100.77734375 160.50390625 C-109.69447768 152.07605264 -117.12336 141.78294528 -121 130 C-121 129.01 -121 128.02 -121 127 C-115.21899758 124.57150243 -109.43458411 122.15127683 -103.64770508 119.73681641 C-101.67880692 118.91418234 -99.71070238 118.08964618 -97.7434082 117.26318359 C-94.91823684 116.07671133 -92.09029756 114.8970716 -89.26171875 113.71875 C-87.93970711 113.16096863 -87.93970711 113.16096863 -86.59098816 112.59191895 C-85.77036392 112.25156616 -84.94973969 111.91121338 -84.10424805 111.56054688 C-83.38254929 111.2585437 -82.66085052 110.95654053 -81.9172821 110.64538574 C-80 110 -80 110 -77 110 C-76.63648438 110.7734375 -76.27296875 111.546875 -75.8984375 112.34375 C-70.16986009 124.2121873 -64.55171907 132.60993706 -52.0625 137.875 C-43.00605318 140.55839165 -30.44857746 140.5604871 -21.6953125 136.921875 C-17.82596517 134.81780594 -15.4324569 132.64868536 -13 129 C-12.43854188 124.74895993 -12.64688624 122.60881683 -14.8125 118.875 C-23.79747295 109.54680844 -40.40631264 107.87995079 -52.45288086 104.953125 C-73.27034402 99.86387754 -95.24187828 93.31081275 -107.25 74.0625 C-114.7437153 60.87356107 -115.40480086 47.96105296 -111.95703125 33.3828125 C-108.1681383 19.99023579 -98.73460113 9.41723518 -86.8125 2.45703125 C-60.2405165 -11.30873242 -27.30986667 -12.34604076 0 0 Z " fill="#231F20" transform="translate(690,148)"/>
<path d="M0 0 C0 13.86 0 27.72 0 42 C13.86 42 27.72 42 42 42 C42 56.19 42 70.38 42 85 C28.14 85 14.28 85 0 85 C0.06180924 98.99922155 0.06180924 98.99922155 0.16015625 112.99804688 C0.20840039 118.71248628 0.25247915 124.42673428 0.27099609 130.14135742 C0.28620471 134.75166211 0.32072442 139.36146409 0.36830902 143.97154427 C0.38307959 145.7252368 0.39103852 147.47900113 0.39188385 149.23275566 C0.19466219 164.11518472 0.19466219 164.11518472 7.5 176.5625 C12.73976305 178.71454554 17.43196357 179.10222943 23 178 C26.42257756 176.06005801 29.20969456 173.76212054 32 171 C34.13903314 173.13903314 34.63356881 174.36169944 35.60400391 177.17431641 C35.90416412 178.03505768 36.20432434 178.89579895 36.51358032 179.78262329 C36.83136444 180.71287323 37.14914856 181.64312317 37.4765625 182.6015625 C37.80667328 183.55316254 38.13678406 184.50476257 38.47689819 185.48519897 C39.53171939 188.52994483 40.57843885 191.57740627 41.625 194.625 C42.33801049 196.68768369 43.05154555 198.75018613 43.765625 200.8125 C45.51651286 205.87291126 47.26075413 210.93557644 49 216 C40.53687511 224.46312489 21.93187838 225.18922864 10.75 225.375 C-5.21412593 225.34808705 -20.22255968 221.05825915 -32.15625 209.98046875 C-47.05979406 193.97178901 -48.46219521 176.43975286 -48.29296875 155.60546875 C-48.28736228 153.5613893 -48.28309716 151.51730577 -48.28010559 149.47322083 C-48.26873954 144.13524936 -48.23934472 138.79752908 -48.20599365 133.45965576 C-48.1751136 127.99592485 -48.16156219 122.53215271 -48.14648438 117.06835938 C-48.11446591 106.37877905 -48.06176676 95.68944986 -48 85 C-57.9 85 -67.8 85 -78 85 C-78 70.81 -78 56.62 -78 42 C-68.1 42 -58.2 42 -48 42 C-48 32.1 -48 22.2 -48 12 C-40.16209321 9.83283683 -32.32425731 7.66584358 -24.48339844 5.50946045 C-20.94612407 4.5364213 -17.4100777 3.55910906 -13.875 2.578125 C-12.56261897 2.21831579 -11.25013358 1.85888678 -9.9375 1.5 C-8.85339844 1.2009375 -7.76929688 0.901875 -6.65234375 0.59375 C-4 0 -4 0 0 0 Z " fill="#231F20" transform="translate(813,104)"/>
<path d="M0 0 C0 83.49 0 166.98 0 253 C-15.84 253 -31.68 253 -48 253 C-48 173.8 -48 94.6 -48 13 C-38.0404478 9.88763994 -28.16221531 6.86148202 -18.08544922 4.20483398 C-16.07524379 3.67437006 -14.06687895 3.13729285 -12.05859375 2.59960938 C-2.26425595 0 -2.26425595 0 0 0 Z " fill="#231F20" transform="translate(926,73)"/>
<path d="M0 0 C14.85 0 29.7 0 45 0 C45 58.74 45 117.48 45 178 C30.15 178 15.3 178 0 178 C0 119.26 0 60.52 0 0 Z " fill="#231F20" transform="translate(502,147)"/>
<path d="M0 0 C0.33 15.18 0.66 30.36 1 46 C3.475 43.03 3.475 43.03 6 40 C17.38979913 30.58666601 29.60752004 26.98607733 44.16796875 27.625 C51.26587473 28.3195963 54.9261648 30.63996611 59.8125 35.6875 C68.15485464 45.96816938 67.15285323 59.67859301 67.09765625 72.2265625 C67.0962413 73.45539154 67.09482635 74.68422058 67.09336853 75.95028687 C67.08780959 79.84188358 67.0752648 83.73342093 67.0625 87.625 C67.05747969 90.27734291 67.05291772 92.92968674 67.04882812 95.58203125 C67.03785364 102.05470746 67.02115684 108.52734949 67 115 C64.91798472 115.50546036 62.83432933 116.00416835 60.75 116.5 C59.58984375 116.7784375 58.4296875 117.056875 57.234375 117.34375 C54 118 54 118 50 118 C49.99413376 117.30588516 49.98826752 116.61177032 49.98222351 115.8966217 C49.92406333 109.32109407 49.85185551 102.74588339 49.76428509 96.17067814 C49.71975971 92.79113766 49.68046594 89.41171278 49.65356445 86.03198242 C49.61986885 82.13691389 49.56754295 78.24246297 49.51171875 74.34765625 C49.50532883 73.1473024 49.4989389 71.94694855 49.49235535 70.71022034 C49.3509298 62.56154038 48.88095988 55.37283108 43.4375 49 C38.42319098 44.88569517 33.27264051 45.46212865 27 46 C18.72236908 48.06940773 11.06407206 52.59034602 6.1875 59.6875 C1.27090623 68.67615481 0.54440553 78.03737358 0.48828125 88.10546875 C0.47033005 89.3106868 0.45237885 90.51590485 0.43388367 91.75764465 C0.38015448 95.56756195 0.34600477 99.37735668 0.3125 103.1875 C0.27929398 105.78712629 0.24480133 108.38673649 0.20898438 110.98632812 C0.12444968 117.32410872 0.05594314 123.66190594 0 130 C-2.10320063 130.50404808 -4.20759791 131.00310508 -6.3125 131.5 C-8.07013672 131.91765625 -8.07013672 131.91765625 -9.86328125 132.34375 C-13 133 -13 133 -16 133 C-16.85933453 116.77213421 -17.1361887 100.59614507 -17.09765625 84.34765625 C-17.09578468 81.98156261 -17.09436429 79.61546857 -17.09336853 77.24937439 C-17.08960141 71.10609819 -17.07982279 64.9628467 -17.06866455 58.81958008 C-17.05832354 52.51709324 -17.05384409 46.2146023 -17.04882812 39.91210938 C-17.03819359 27.60806223 -17.02118958 15.30403319 -17 3 C-15.10614563 2.49255577 -13.20981334 1.99435426 -11.3125 1.5 C-9.72888672 1.08234375 -9.72888672 1.08234375 -8.11328125 0.65625 C-5 0 -5 0 0 0 Z " fill="#231F20" transform="translate(92,0)"/>
<path d="M0 0 C8.06856742 6.51749346 12.17574089 14.26383444 13.86328125 24.45703125 C13.94254336 27.09604232 13.97689566 29.69244392 13.9375 32.328125 C13.9294635 33.36108704 13.9294635 33.36108704 13.92126465 34.41491699 C13.90741024 36.09567577 13.8861174 37.77637051 13.86328125 39.45703125 C-23.42496171 48.10533859 -23.42496171 48.10533859 -40.82421875 52.01953125 C-42.47611206 52.39585693 -42.47611206 52.39585693 -44.16137695 52.77978516 C-45.16773193 53.00456543 -46.17408691 53.2293457 -47.2109375 53.4609375 C-48.07291748 53.65502197 -48.93489746 53.84910645 -49.82299805 54.04907227 C-52.13671875 54.45703125 -52.13671875 54.45703125 -56.13671875 54.45703125 C-54.0206204 61.84366028 -51.93512828 67.40059979 -45.13671875 71.45703125 C-37.09565313 75.36230427 -27.63247768 74.35278965 -19.38671875 71.51953125 C-12.83210818 68.72418263 -5.42597815 64.03555004 -2.13671875 57.45703125 C1.48941324 58.02662278 3.11845866 59.38077659 5.61328125 62.01953125 C6.226875 62.66019531 6.84046875 63.30085938 7.47265625 63.9609375 C7.9315625 64.45464844 8.39046875 64.94835937 8.86328125 65.45703125 C5.71109705 74.7186034 -2.68207347 80.42643605 -10.96875 84.953125 C-24.39356773 91.32618891 -39.06102608 93.59046727 -53.31640625 88.7109375 C-62.25197138 84.79945471 -67.48147199 77.84271094 -71.2265625 69.0703125 C-75.75369906 56.07179595 -74.15762935 39.56673657 -68.6953125 27.19140625 C-60.99908893 11.83467245 -49.43655235 0.96619289 -33.13671875 -4.54296875 C-21.85737577 -7.49439683 -9.50130663 -6.8610898 0 0 Z M-50.81640625 25.23828125 C-53.89167565 30.40618959 -56.13671875 35.41243157 -56.13671875 41.45703125 C-46.06110312 39.9875088 -36.17518039 37.7683326 -26.25146484 35.51586914 C-23.48375321 34.88818904 -20.71463603 34.26700985 -17.9453125 33.64648438 C-16.1835079 33.2490783 -14.42178597 32.85130555 -12.66015625 32.453125 C-11.41968033 32.17498207 -11.41968033 32.17498207 -10.15414429 31.89122009 C-6.03626823 30.99906161 -6.03626823 30.99906161 -2.13671875 29.45703125 C-3.30269515 22.92756343 -5.29511677 18.12313806 -10.13671875 13.45703125 C-24.55935628 3.96634925 -41.72965573 12.32814389 -50.81640625 25.23828125 Z " fill="#231F20" transform="translate(241.13671875,13.54296875)"/>
<path d="M0 0 C0 11.88 0 23.76 0 36 C8.25 34.35 16.5 32.7 25 31 C25 35.95 25 40.9 25 46 C21.58460607 46.83886868 18.16785992 47.67129216 14.75 48.5 C13.78191406 48.73847656 12.81382813 48.97695313 11.81640625 49.22265625 C10.88183594 49.44824219 9.94726562 49.67382812 8.984375 49.90625 C8.12553711 50.11572266 7.26669922 50.32519531 6.38183594 50.54101562 C4 51 4 51 0 51 C0.0670564 58.58088392 0.15688603 66.16125441 0.26245117 73.74169922 C0.29567781 76.3197621 0.32371673 78.89789733 0.34643555 81.47607422 C0.38002207 85.18488354 0.43234244 88.8930312 0.48828125 92.6015625 C0.49467117 93.75177887 0.5010611 94.90199524 0.50764465 96.08706665 C0.63541091 103.96558625 0.63541091 103.96558625 4 111 C7.22687592 112.61343796 10.50107738 112.46038455 14 112 C16.82945518 110.92235552 19.38079979 109.50769088 22 108 C23.32959344 107.32590542 24.66196391 106.65717702 26 106 C26.89429374 107.5725165 27.76487427 109.15853741 28.625 110.75 C29.11226562 111.63171875 29.59953125 112.5134375 30.1015625 113.421875 C31 116 31 116 30.40234375 118.13671875 C25.99928895 123.98701719 18.08877921 127.71889532 11 129 C3.57971344 129.60164486 -2.46884071 129.93913448 -9 126 C-17.48766582 117.12653119 -17.14002392 107.56451797 -17.31640625 95.94140625 C-17.33718735 94.79711655 -17.35796844 93.65282684 -17.37937927 92.47386169 C-17.44449793 88.83679924 -17.5035839 85.19966769 -17.5625 81.5625 C-17.60572108 79.08918571 -17.6493365 76.61587827 -17.69335938 74.14257812 C-17.80014049 68.09512405 -17.9019753 62.04760201 -18 56 C-18.60328125 56.144375 -19.2065625 56.28875 -19.828125 56.4375 C-20.62734375 56.623125 -21.4265625 56.80875 -22.25 57 C-23.03890625 57.185625 -23.8278125 57.37125 -24.640625 57.5625 C-27 58 -27 58 -31 58 C-31.33 53.38 -31.66 48.76 -32 44 C-27 42 -27 42 -18 40 C-17.67 27.79 -17.34 15.58 -17 3 C-4 0 -4 0 0 0 Z " fill="#231F20" transform="translate(32,13)"/>
<path d="M0 0 C8.27550318 4.45003473 13.83463341 10.2872525 16.640625 19.29296875 C18.56893372 29.09520473 17.16189943 38.07034769 11.77734375 46.43359375 C7.43789178 52.05433237 1.08508826 56.12820388 -5.9375 57.4375 C-15.42927791 58.2978246 -24.51675642 57.05419479 -32.3125 51.1875 C-38.94628881 44.23781648 -41.84547167 37.16141726 -42.3125 27.625 C-42.08469024 18.90122606 -38.86890287 11.39768233 -32.875 5.09375 C-24.21684254 -2.30757816 -10.55448312 -4.32530482 0 0 Z " fill="#231F20" transform="translate(536.9375,71.5625)"/>
</svg>
